<?xml version="1.0" encoding="utf-8"?>
<!-- Generator: Adobe Illustrator 24.3.0, SVG Export Plug-In . SVG Version: 6.00 Build 0)  -->
<svg version="1.1" id="Layer_1" xmlns="http://www.w3.org/2000/svg" xmlns:xlink="http://www.w3.org/1999/xlink" x="0px" y="0px"
	 viewBox="0 0 500 500" style="enable-background:new 0 0 500 500;" xml:space="preserve">
<style type="text/css">
	.st0{fill:#161111;}
</style>
<image style="overflow:visible;" width="236" height="236" xlink:href="c27ec711940228923de3bf2c3db1456c.jpg"  transform="matrix(1 0 0 1 -706.38 153)">
</image>
<g>
	<path class="st0" d="M390.5,108.2H109.5c-32,0-57.9,25.5-57.9,57.1V422c0,31.5,25.9,57.1,57.9,57.1h281.1c32,0,57.9-25.5,57.9-57.1
		V165.3C448.4,133.8,422.5,108.2,390.5,108.2z M420.3,403.8c0,27.1-22.3,49-49.7,49H129.4c-27.4,0-49.7-21.9-49.7-49V183.5
		c0-27.1,22.3-49,49.7-49h241.2c27.4,0,49.7,21.9,49.7,49V403.8z"/>
	<path class="st0" d="M252.4,20.9c-50.1,0-90.8,38.8-90.8,86.8v0.5c0,9.1,1.6,18,4.5,26.3h172.8c2.8-8.3,4.4-17.1,4.5-26.3v-0.5
		C343.3,59.7,302.6,20.9,252.4,20.9z M187.6,108.2v-0.5c0-34.2,29-61.9,64.8-61.9s64.8,27.7,64.8,61.9v0.5H187.6z"/>
	<path class="st0" d="M317.2,108.2c-0.1,9.4-2.3,18.3-6.4,26.3H194c-4.1-8-6.3-16.9-6.4-26.3H317.2z"/>
</g>
</svg>
